<?xml version="1.0" encoding="UTF-8" standalone="no"?>
<!DOCTYPE svg PUBLIC "-//W3C//DTD SVG 1.1//EN" "http://www.w3.org/Graphics/SVG/1.1/DTD/svg11.dtd">
<svg width="100%" height="100%" viewBox="0 0 505 370" version="1.1" xmlns="http://www.w3.org/2000/svg" xmlns:xlink="http://www.w3.org/1999/xlink" xml:space="preserve" xmlns:serif="http://www.serif.com/" style="fill-rule:evenodd;clip-rule:evenodd;stroke-linecap:round;stroke-linejoin:round;stroke-miterlimit:1.5;">
    <g transform="matrix(1,0,0,1,-150.265,-118.253)">
        <g id="Eye" transform="matrix(0.203474,0,0,0.105415,150.265,118.253)">
            <rect x="0" y="0" width="2480.32" height="3507.87" style="fill:none;"/>
            <g id="EYESVVG" transform="matrix(8.71292,0,0,16.8178,-11320.4,-35364.8)">
                <g transform="matrix(1.33043,0,0,-6.3465,-5229.56,15909)">
                    <path d="M5103.82,2158.95C5103.76,2158.86 5103.46,2158.45 5102.89,2157.86C5102.82,2157.79 5102.73,2157.7 5101.68,2157.04C5101.12,2156.68 5100.62,2156.4 5100.51,2156.33C5100.46,2156.3 5100.43,2156.28 5100.36,2156.25C5100.22,2156.19 5098.79,2155.76 5098.65,2155.72C5069.82,2146.94 5022.31,2143.41 4978.82,2146.8C4960.26,2148.24 4947.98,2150.52 4942.66,2151.58C4942.53,2151.6 4940.91,2152.09 4939.43,2152.58C4938.11,2153.01 4937.8,2153.13 4937.67,2153.18C4936.13,2153.77 4935.73,2153.97 4935.41,2154.08C4934.15,2154.49 4933.4,2154.77 4933.39,2154.77C4933.27,2154.81 4931.29,2155.32 4928.13,2156.3C4928.09,2156.32 4928.04,2156.33 4928,2156.35C4929.54,2155.87 4931.27,2155.38 4933.24,2154.86C4933.69,2154.74 4933.72,2154.74 4934.23,2154.64C4936.26,2154.24 4936.47,2154.21 4936.69,2154.18C4939.14,2153.8 4939.62,2153.75 4940.97,2153.55C4944.44,2153.03 4947.41,2152.66 4947.42,2152.66C4948.03,2152.55 4956.22,2150.82 4969.08,2149.35C5008.6,2144.85 5055.41,2146.94 5086.44,2154.78C5091.21,2155.99 5094.4,2157.05 5094.45,2157.06C5094.61,2157.1 5096.63,2157.48 5099.63,2158.14C5099.92,2158.2 5100.15,2158.23 5101.53,2158.5C5102.67,2158.72 5103.61,2158.9 5103.82,2158.95ZM4923.43,2157.87C4924.63,2157.44 4926.16,2156.91 4928,2156.35C4926.26,2156.88 4924.77,2157.39 4923.43,2157.87ZM4923.43,2157.87C4921.96,2158.4 4920.99,2158.79 4920.6,2158.95C4921.47,2158.6 4922.41,2158.24 4923.43,2157.87Z" style="fill:rgb(205,207,209);"/>
                </g>
                <g transform="matrix(1.33043,0,0,6.3465,-5229.56,-11494.1)">
                    <path d="M4920.6,2158.95C4920.69,2158.91 4921.61,2158.53 4923.27,2157.93C4922.31,2158.28 4921.43,2158.62 4920.6,2158.95ZM4927.98,2156.35C4926.05,2156.95 4924.47,2157.5 4923.27,2157.93C4924.64,2157.43 4926.18,2156.9 4927.98,2156.35ZM4927.98,2156.35C4929.19,2155.97 4930.53,2155.57 4932,2155.16C4933.26,2154.8 4933.28,2154.8 4933.39,2154.77C4933.42,2154.76 4934.16,2154.49 4935.41,2154.08C4935.73,2153.97 4936.13,2153.77 4937.67,2153.18C4938.75,2152.77 4942.35,2151.65 4942.6,2151.59C4942.83,2151.53 4944.56,2151.21 4944.73,2151.18C4982.98,2143.94 5036.23,2143.6 5076.16,2150.53C5088.66,2152.7 5096.46,2155.01 5100.31,2156.23C5100.4,2156.26 5100.4,2156.26 5101.02,2156.64C5101.94,2157.18 5102.56,2157.62 5102.76,2157.76C5102.82,2157.8 5102.88,2157.84 5103.29,2158.29C5103.57,2158.62 5103.57,2158.62 5103.82,2158.95C5100.49,2158.28 5100.33,2158.28 5099.77,2158.17C5099.69,2158.15 5097.68,2157.7 5094.74,2157.12C5094.65,2157.1 5094.53,2157.08 5094.45,2157.06C5094.05,2156.96 5088.45,2155.02 5078.52,2152.97C5041.17,2145.28 4986.9,2144.89 4947.48,2152.65C4947.29,2152.68 4944.83,2152.97 4940.59,2153.61C4940.2,2153.67 4938.97,2153.83 4936.69,2154.18C4936.47,2154.21 4936.26,2154.24 4934.23,2154.64C4933.72,2154.74 4933.69,2154.74 4933.24,2154.86C4931.26,2155.38 4929.52,2155.87 4927.98,2156.35Z" style="fill:rgb(205,207,209);"/>
                </g>
                <g transform="matrix(1.50982,0,0,1.61339,-6131.32,-1348.06)">
                    <ellipse cx="5013.04" cy="2203.67" rx="31.291" ry="29.283" style="fill:none;stroke:rgb(205,207,209);stroke-width:12.03px;"/>
                </g>
            </g>
        </g>
    </g>
</svg>
